<svg width="32" height="32" viewBox="0 0 32 32" fill="none" xmlns="http://www.w3.org/2000/svg">
<path d="M27.4297 0H32.0011V4.57143H27.4297V0Z" fill="#251C1C"/>
<path d="M27.4297 6.85742H32.0011V11.4289H27.4297V6.85742Z" fill="#251C1C"/>
<path d="M20.5703 0H25.1417V4.57143H20.5703V0Z" fill="#251C1C"/>
<path d="M20.5703 6.85742H25.1417V11.4289H20.5703V6.85742Z" fill="#251C1C"/>
<path d="M29.7143 15.9999V22.8571H2.28571V4.57136H16V2.28564H2.28571C1.67951 2.28564 1.09812 2.52646 0.66947 2.95511C0.240816 3.38377 0 3.96515 0 4.57136V22.8571C0 23.4633 0.240816 24.0447 0.66947 24.4733C1.09812 24.902 1.67951 25.1428 2.28571 25.1428H11.4286V29.7142H6.85714V31.9999H25.1429V29.7142H20.5714V25.1428H29.7143C30.3205 25.1428 30.9019 24.902 31.3305 24.4733C31.7592 24.0447 32 23.4633 32 22.8571V15.9999H29.7143ZM18.2857 29.7142H13.7143V25.1428H18.2857V29.7142Z" fill="#251C1C"/>
</svg>
